<!-- <svg version="1.1" id="Capa_1" xmlns="http://www.w3.org/2000/svg" xmlns:xlink="http://www.w3.org/1999/xlink" x="0px" y="0px"
	 viewBox="0 0 512 512" style="enable-background:new 0 0 512 512;" xml:space="preserve">
<path style="fill:#564D80;" d="M414.5,0H252.75l-75,256l75,256H414.5c33.084,0,60-26.916,60-60V60C474.5,26.916,447.584,0,414.5,0z"
	/>
<path style="fill:#8062A7;" d="M97.5,0c-33.084,0-60,26.916-60,60v392c0,33.084,26.916,60,60,60h155.25V0H97.5z"/>
<path style="fill:#EFF6F9;" d="M348.006,213.218c-17.79-15.071-41.893-21.397-66.121-17.36l-29.135,4.856l-30,30.828l30,30
	l38.998-6.5c6.897-1.15,13.106,0.256,17.476,3.958c4.37,3.702,6.776,9.593,6.776,16.587V452h60V275.586
	C376,251.021,365.797,228.289,348.006,213.218z"/>
<g>
	<polygon style="fill:#FFFFFF;" points="196,210.172 196,60 136,60 136,281 252.75,261.541 252.75,200.714 	"/>
	<polygon style="fill:#FFFFFF;" points="136,349 196,394 136,439 	"/>
</g>
<path style="fill:#EFF6F9;" d="M369.153,120.858C373.665,101.123,376,80.743,376,60h-60c0,21.152-3.147,41.579-8.969,60.858H369.153
	z"/>
<g>
</g>
<g>
</g>
<g>
</g>
<g>
</g>
<g>
</g>
<g>
</g>
<g>
</g>
<g>
</g>
<g>
</g>
<g>
</g>
<g>
</g>
<g>
</g>
<g>
</g>
<g>
</g>
<g>
</g>
</svg> -->
<!-- 
<svg width="1600" height="2500" viewBox="0 0 256 400" xmlns="http://www.w3.org/2000/svg" preserveAspectRatio="xMinYMin meet"><path d="M28.083 398.289V363.51c0-2.452-1.798-3.51-3.917-3.51-4.248 0-9.554 1.058-14.37 3.181v35.108H0v-64.576h9.795v21.304c4.656-1.712 10.206-3.18 15.758-3.18 8.898 0 12.246 5.469 12.246 12.976v33.476h-9.716zm27.999-21.063c.326 11.674 2.613 13.961 9.794 13.961 5.634 0 12.002-1.879 16.902-3.757l1.632 7.346c-5.226 2.37-11.593 4.655-19.183 4.655-16.33 0-18.862-8.978-18.862-23.268 0-7.835.573-14.939 2.45-21.47 4.898-1.878 11.43-2.857 19.673-2.857 13.393 0 17.473 7.43 17.473 20.41v4.98H56.082zM68.488 360c-2.935 0-7.59.082-11.427.813-.406 1.96-.899 4.655-1.062 9.636h20.41c0-6.778-1.225-10.449-7.921-10.449zm35.837 3.181v35.108h-9.797v-39.515c8.246-4.489 16.981-5.877 22.698-6.285v8.164c-4 .326-9.064.816-12.9 2.528zm38.778 36.25c-14.616 0-21.228-7.183-21.228-23.594 0-17.389 8.735-24 21.228-24 14.612 0 21.226 7.182 21.226 23.592 0 17.39-8.737 24.002-21.226 24.002zm0-39.43c-7.512 0-11.675 4.325-11.675 15.836 0 12.574 3.51 15.35 11.675 15.35 7.51 0 11.674-4.247 11.674-15.758 0-12.574-3.51-15.429-11.674-15.429zm68.49 38.288H200.08c-2.692-7.184-6.45-14.532-12.246-20.9h-5.144v20.9h-9.796v-64.576h9.796v37.062h4.573c4.98-5.144 8.816-11.509 11.511-17.797h11.02c-3.754 7.593-8.57 14.287-13.959 19.757 6.45 8.164 11.511 16.818 15.757 25.554zm18.363 1.142c-8.897 0-12.244-5.468-12.244-12.98v-33.473h9.714v34.697c0 2.452 1.794 3.512 3.917 3.512 4.246 0 10.042-1.06 14.86-3.184v-35.025H256v39.35c-11.593 6.369-20.493 7.103-26.044 7.103zM225.628 317.253H30.258C13.545 317.253 0 303.708 0 286.998V30.256C0 13.546 13.546 0 30.257 0h195.37c16.71 0 30.26 13.546 30.26 30.256v256.742c0 16.71-13.55 30.255-30.26 30.255z" fill="#6762A6"/><path d="M160.36 273.6V147.61s8.195-30.15-100.943 12.334c-.2.539-.2-116.504-.2-116.504l35.66-.22v74.991s99.846-39.325 99.846 29.824V273.6h-34.362zm20.32-184.994h-37.824c13.615-16.646 25.94-45.167 25.94-45.167h39.11s-6.696 18.587-27.225 45.167zM59.865 273.382v-71.748l35.878 35.877-35.878 35.871z" fill="#FFF"/></svg> -->


<svg
   xmlns:dc="http://purl.org/dc/elements/1.1/"
   xmlns:cc="http://creativecommons.org/ns#"
   xmlns:rdf="http://www.w3.org/1999/02/22-rdf-syntax-ns#"
   xmlns:svg="http://www.w3.org/2000/svg"
   xmlns="http://www.w3.org/2000/svg"
   xmlns:sodipodi="http://sodipodi.sourceforge.net/DTD/sodipodi-0.dtd"
   xmlns:inkscape="http://www.inkscape.org/namespaces/inkscape"
   width="120"
   height="60"
   viewBox="0 0 19.2 9.6"
   preserveAspectRatio="xMinYMin meet"
   id="svg5611"
   version="1.1"
   inkscape:version="0.91 r13725"
   sodipodi:docname="heroku-ar21.svg">
  <metadata
     id="metadata5621">
    <rdf:RDF>
      <cc:Work
         rdf:about="">
        <dc:format>image/svg+xml</dc:format>
        <dc:type
           rdf:resource="http://purl.org/dc/dcmitype/StillImage" />
        <dc:title />
      </cc:Work>
    </rdf:RDF>
  </metadata>
  <defs
     id="defs5619" />
  <sodipodi:namedview
     pagecolor="#ffffff"
     bordercolor="#666666"
     borderopacity="1"
     objecttolerance="10"
     gridtolerance="10"
     guidetolerance="10"
     inkscape:pageopacity="0"
     inkscape:pageshadow="2"
     inkscape:window-width="1855"
     inkscape:window-height="1056"
     id="namedview5617"
     showgrid="false"
     inkscape:zoom="8.5441126"
     inkscape:cx="50.955009"
     inkscape:cy="32.202122"
     inkscape:window-x="65"
     inkscape:window-y="24"
     inkscape:window-maximized="1"
     inkscape:current-layer="svg5611" />
  <g
     id="g5663"
     transform="matrix(0.39906238,0,0,0.39906238,-1.1503346,4.8940322)">
    <path
       sodipodi:nodetypes="cssssssscc"
       style="fill:#6762a6"
       inkscape:connector-curvature="0"
       id="path5613"
       d="m 14.232812,5.3394245 -7.8295343,0 c -0.6697805,0 -1.2126021,-0.5428216 -1.2126021,-1.2124819 l 0,-10.2890434 c 0,-0.6696603 0.5428616,-1.2125219 1.212562,-1.2125219 l 7.8295344,0 c 0.669661,0 1.212683,0.5428616 1.212683,1.2125219 l 0,10.2890434 c 0,0.6696603 -0.543022,1.2124819 -1.212683,1.2124819 z" />
    <path
       style="fill:#ffffff"
       inkscape:connector-curvature="0"
       id="path5615"
       d="m 11.61717,3.5900123 0,-5.0491022 c 0,0 0.328418,-1.2082739 -4.0453332,0.49429023 -0.00802,0.0216007 -0.00802,-4.66894673 -0.00802,-4.66894673 l 1.4290895,-0.00882 0,3.0052958 c 0,0 4.0013707,-1.5759659 4.0013707,1.1952094 l 0,5.0320701 -1.377072,0 z m 0.814332,-7.4137123 -1.515812,0 c 0.545627,-0.6670954 1.039556,-1.8100865 1.039556,-1.8100865 l 1.56735,0 c 0,0 -0.268345,0.7448819 -1.091053,1.8100865 z m -4.8417114,7.4049758 0,-2.87533121 1.4378259,1.43778581 -1.4378259,1.4375454 z" />
  </g>
  <path
     d="m 7.2705355,6.1812362 0,-1.6507348 c 0,-0.1163866 -0.085345,-0.1665974 -0.1859142,-0.1665974 -0.2016247,0 -0.4534673,0.050217 -0.6820515,0.1509817 l 0,1.6663505 -0.4649531,0 0,-3.0650058 0.4649058,0 0,1.0111626 C 6.6235126,4.046134 6.8869358,3.9764587 7.1504537,3.9764587 c 0.4223306,0 0.5812379,0.2595788 0.5812379,0.6158874 l 0,1.5888901 z M 8.5994677,5.1815109 c 0.01548,0.5540902 0.124022,0.6626387 0.464859,0.6626387 0.267409,0 0.5696565,-0.089182 0.8022285,-0.1783201 l 0.07746,0.3486672 c -0.248046,0.1124901 -0.550246,0.2209415 -0.9104935,0.2209415 -0.77508,0 -0.8952579,-0.4261264 -0.8952579,-1.1043808 0,-0.371877 0.027193,-0.7090572 0.1162919,-1.0190421 0.232476,-0.089135 0.542508,-0.135604 0.933751,-0.135604 0.6356785,0 0.8293293,0.3526549 0.8293293,0.9687319 l 0,0.2363677 -1.4181633,0 z M 9.1883007,4.363904 c -0.139306,0 -0.360249,0.00391 -0.542366,0.038586 -0.01927,0.093031 -0.04267,0.2209427 -0.05041,0.457359 l 0.9687305,0 c 0,-0.3217077 -0.05814,-0.4959465 -0.3759585,-0.4959454 z m 1.7009513,0.1509817 0,1.6663505 -0.465001,0 0,-1.8755219 c 0.391385,-0.2130644 0.805978,-0.2789442 1.077328,-0.2983084 l 0,0.3874916 c -0.189855,0.015468 -0.43021,0.038728 -0.61228,0.1199882 z m 1.84054,1.7205525 c -0.693726,0 -1.007556,-0.3409298 -1.007556,-1.1198532 0,-0.8253443 0.414595,-1.1391263 1.007556,-1.1391263 0.693538,0 1.007462,0.3408836 1.007462,1.1197609 0,0.8253904 -0.414689,1.1392186 -1.007462,1.1392186 z m 0,-1.8714868 c -0.356545,0 -0.554136,0.2052796 -0.554136,0.7516336 0,0.5968062 0.166598,0.7285646 0.554136,0.7285646 0.356452,0 0.554091,-0.2015773 0.554091,-0.74793 0,-0.5968063 -0.166598,-0.7323156 -0.554091,-0.7323156 z m 3.25078,1.8172848 -0.546448,0 C 15.306352,5.8402578 15.127984,5.4914959 14.852885,5.1892483 l -0.244153,0 0,0.9919879 -0.464953,0 0,-3.0650058 0.464953,0 0,1.7590938 0.217051,0 c 0.236369,-0.2441525 0.418439,-0.546258 0.546353,-0.8447085 l 0.523048,0 c -0.178178,0.36039 -0.406762,0.6781111 -0.662544,0.9377373 0.306141,0.3874915 0.546354,0.7982415 0.747884,1.2128832 z m 0.871573,0.054196 c -0.422283,0 -0.581145,-0.259529 -0.581145,-0.6160758 l 0,-1.5887467 0.461062,0 0,1.6468418 c 0,0.1163747 0.08514,0.1666921 0.185914,0.1666921 0.201531,0 0.47663,-0.050311 0.705309,-0.1511238 l 0,-1.6624101 0.464999,0 0,1.8676897 c -0.550243,0.3023022 -0.972669,0.3371388 -1.236139,0.3371388 z"
     id="path5613-3"
     inkscape:connector-curvature="0"
     style="fill:#6762a6"
     sodipodi:nodetypes="cssccccccsscccsccsscsscccscccsccccccccssssscsssccccccccccccccccccsccsscccccc" />
</svg>
