<!-- <svg width="1773" height="2500" viewBox="0 0 256 361" xmlns="http://www.w3.org/2000/svg" preserveAspectRatio="xMinYMin meet"><path d="M255.555 70.766l-23.241 260.36-104.47 28.962-104.182-28.922L.445 70.766h255.11z" fill="#E44D26"/><path d="M128 337.95l84.417-23.403 19.86-222.49H128V337.95z" fill="#F16529"/><path d="M82.82 155.932H128v-31.937H47.917l.764 8.568 7.85 88.01H128v-31.937H85.739l-2.919-32.704zM90.018 236.542h-32.06l4.474 50.146 65.421 18.16.147-.04V271.58l-.14.037-35.568-9.604-2.274-25.471z" fill="#EBEBEB"/><path d="M24.18 0h16.23v16.035h14.847V0h16.231v48.558h-16.23v-16.26H40.411v16.26h-16.23V0zM92.83 16.103H78.544V0h44.814v16.103h-14.295v32.455h-16.23V16.103h-.001zM130.47 0h16.923l10.41 17.062L168.203 0h16.93v48.558h-16.164V24.49l-11.166 17.265h-.28L146.35 24.49v24.068h-15.88V0zM193.21 0h16.235v32.508h22.824v16.05h-39.06V0z"/><path d="M127.89 220.573h39.327l-3.708 41.42-35.62 9.614v33.226l65.473-18.145.48-5.396 7.506-84.08.779-8.576H127.89v31.937zM127.89 155.854v.078h77.143l.64-7.178 1.456-16.191.763-8.568H127.89v31.86z" fill="#FFF"/></svg> -->


<svg
   xmlns:dc="http://purl.org/dc/elements/1.1/"
   xmlns:cc="http://creativecommons.org/ns#"
   xmlns:rdf="http://www.w3.org/1999/02/22-rdf-syntax-ns#"
   xmlns:svg="http://www.w3.org/2000/svg"
   xmlns="http://www.w3.org/2000/svg"
   xmlns:sodipodi="http://sodipodi.sourceforge.net/DTD/sodipodi-0.dtd"
   xmlns:inkscape="http://www.inkscape.org/namespaces/inkscape"
   width="120"
   height="60"
   id="svg2"
   version="1.1"
   preserveAspectRatio="xMinYMin meet"
   inkscape:version="0.92.3 (2405546, 2018-03-11)"
   sodipodi:docname="w3_html5-ar21.svg">
  <defs
     id="defs4" />
  <sodipodi:namedview
     id="base"
     pagecolor="#ffffff"
     bordercolor="#666666"
     borderopacity="1.0"
     inkscape:pageopacity="0.0"
     inkscape:pageshadow="2"
     inkscape:zoom="3.959798"
     inkscape:cx="-11.275444"
     inkscape:cy="64.46394"
     inkscape:document-units="px"
     inkscape:current-layer="layer1"
     showgrid="false"
     fit-margin-top="0"
     fit-margin-left="0"
     fit-margin-right="0"
     fit-margin-bottom="0"
     inkscape:window-width="1920"
     inkscape:window-height="1001"
     inkscape:window-x="-9"
     inkscape:window-y="-9"
     inkscape:window-maximized="1" />
  <metadata
     id="metadata7">
    <rdf:RDF>
      <cc:Work
         rdf:about="">
        <dc:format>image/svg+xml</dc:format>
        <dc:type
           rdf:resource="http://purl.org/dc/dcmitype/StillImage" />
        <dc:title></dc:title>
      </cc:Work>
    </rdf:RDF>
  </metadata>
  <g
     inkscape:label="Calque 1"
     inkscape:groupmode="layer"
     id="layer1"
     transform="translate(-170.06157,-722.18109)">
    <g
       id="g874"
       transform="translate(0.38711726)">
      <g
         transform="matrix(2.6222187,0,0,2.6222187,-302.65705,-1161.674)"
         id="g847">
        <path
           inkscape:connector-curvature="0"
           d="m 182.52578,726.60967 h 2.17341 v 2.14732 h 1.98816 v -2.14732 h 2.1735 v 6.50262 h -2.17341 v -2.17746 h -1.98815 v 2.17746 h -2.17341 v -6.50262 z"
           id="path3036"
           style="stroke-width:0.09418078" />
        <path
           inkscape:connector-curvature="0"
           d="m 191.71896,728.76603 h -1.91338 v -2.15636 h 6.0012 v 2.15636 h -1.91423 v 4.34626 h -2.1735 v -4.34626 z"
           id="path3038"
           style="stroke-width:0.09418078" />
        <path
           inkscape:connector-curvature="0"
           d="m 196.75923,726.60967 h 2.26627 l 1.39406,2.28483 1.39266,-2.28483 h 2.26712 v 6.50262 h -2.16447 v -3.22306 l -1.49531,2.31205 h -0.0374 l -1.49634,-2.31205 v 3.22306 h -2.1266 z"
           id="path3040"
           style="stroke-width:0.09418078" />
        <path
           inkscape:connector-curvature="0"
           d="m 205.161,726.60967 h 2.17407 v 4.35322 h 3.05645 v 2.1494 H 205.161 Z"
           id="path3042"
           style="stroke-width:0.09418078" />
      </g>
      <g
         transform="matrix(0.92607754,0,0,0.92607754,80.606007,53.578385)"
         id="g855">
        <g
           transform="translate(5.4539307,-1.0907861)"
           id="g859">
          <polygon
             transform="matrix(0.09418078,0,0,0.09418078,172.31828,726.60967)"
             id="polygon3028"
             points="74.633,100.62 437.367,100.62 404.321,470.819 255.778,512 107.644,470.877 "
             style="fill:#e44d26" />
          <polygon
             transform="matrix(0.09418078,0,0,0.09418078,172.31828,726.60967)"
             id="polygon3030"
             points="376.03,447.246 404.27,130.894 256,130.894 256,480.523 "
             style="fill:#f16529" />
          <polygon
             transform="matrix(0.09418078,0,0,0.09418078,172.31828,726.60967)"
             id="polygon3032"
             points="195.91,268.217 191.76,221.716 256,221.716 256,176.305 255.843,176.305 142.132,176.305 143.219,188.488 154.38,313.627 256,313.627 256,268.217 "
             style="fill:#ebebeb" />
          <polygon
             transform="matrix(0.09418078,0,0,0.09418078,172.31828,726.60967)"
             id="polygon3034"
             points="156.409,336.333 162.771,407.634 255.791,433.457 256,433.399 256,386.153 255.801,386.206 205.227,372.55 201.994,336.333 177.419,336.333 "
             style="fill:#ebebeb" />
          <polygon
             transform="matrix(0.09418078,0,0,0.09418078,172.31828,726.60967)"
             id="polygon3044"
             points="360.291,280.411 361.399,268.217 349.162,268.217 255.843,268.217 255.843,313.627 311.761,313.627 306.49,372.521 255.843,386.191 255.843,433.435 348.937,407.634 349.62,399.962 "
             style="fill:#ffffff" />
          <polygon
             transform="matrix(0.09418078,0,0,0.09418078,172.31828,726.60967)"
             id="polygon3046"
             points="255.843,221.716 365.385,221.716 365.531,221.716 366.442,211.509 368.511,188.488 369.597,176.305 255.843,176.305 255.843,204.509 255.843,221.605 "
             style="fill:#ffffff" />
        </g>
      </g>
    </g>
  </g>
</svg>
