<!-- <svg xmlns="http://www.w3.org/2000/svg" viewBox="0 0 48 48"><defs><linearGradient id="0" x1="24.2" y1="47.593" x2="25.627" y2="0" gradientUnits="userSpaceOnUse"><stop stop-color="#74cb32"/><stop offset="1" stop-color="#abeb6b"/></linearGradient></defs><circle r="24" cy="24" cx="24" fill="url(#0)"/><g transform="matrix(.05078 0 0 .05078 10 10)" fill="#283d16"><path d="m413.69 0c0 0-45.37 44.01-94.43 61.759-363.33 131.42-210.1 387.52-205.1 388.36 0 0 20.374-35.48 47.896-55.717 174.64-128.39 210.14-276.17 210.14-276.17 0 0-39.19 177.83-194.56 288.48-34.32 24.426-57.55 84.57-67.39 144.68 0 0 24.325-9.828 34.785-12.49 4.079-26.618 12.607-52.11 27.03-74.875 217.15 25.854 288.27-149.12 297.56-210.14 21.929-144.1-55.928-253.89-55.928-253.89"/></g></svg> -->
<!-- 
<svg width="2500" height="713" viewBox="0 0 512 146" xmlns="http://www.w3.org/2000/svg"><g fill="none" fill-rule="evenodd"><path d="M476.713 60.463c-.46.092-.922 1.107-.922 1.66-.092 3.692-.184 13.474-.184 20.118 0 .185.276.554.553.554 1.384.092 4.706.184 7.567.184 3.968 0 6.275-.553 7.568-1.106 3.321-1.662 4.89-5.261 4.89-9.23 0-8.95-6.275-12.365-15.596-12.365-.646-.092-2.49-.092-3.876.185zm23.81 41.25c0-9.136-6.737-14.212-18.918-14.212-.554 0-4.43-.092-5.353.092-.277.093-.645.278-.645.555 0 6.551-.093 16.98.184 21.04.184 1.753 1.477 4.245 3.046 4.983 1.66.923 5.444 1.107 8.028 1.107 7.29 0 13.658-4.06 13.658-13.565zm-42.634-46.325c.922 0 3.69.276 10.796.276 6.737 0 12.089-.184 18.641-.184 8.028 0 19.102 2.86 19.102 14.857 0 5.906-4.153 10.613-9.597 12.92-.276.092-.276.276 0 .368 7.751 1.939 14.581 6.737 14.581 15.78 0 8.86-5.537 14.489-13.566 17.996-4.891 2.122-10.981 2.86-17.164 2.86-4.707 0-17.349-.553-24.362-.368-.738-.278.646-3.6 1.291-4.153 1.662-.093 2.953-.185 4.707-.739 2.492-.645 2.768-1.384 3.137-5.167.185-3.23.185-14.674.185-22.794 0-11.166.093-18.733 0-22.424-.092-2.86-1.107-3.784-3.137-4.338-1.57-.276-4.153-.646-6.276-.922-.462-.462 1.107-3.6 1.662-3.968zm-53.248 57.399c2.216 1.752 6.553 2.49 10.429 2.49 4.983 0 9.966-.921 14.765-5.26 4.891-4.428 8.305-11.257 8.305-22.146 0-10.429-3.968-18.919-12.089-23.901-4.614-2.862-10.52-4.06-17.349-4.06-2.03 0-3.968.092-5.167.645-.278.185-.923 1.015-.923 1.476-.185 1.846-.185 16.057-.185 24.363 0 8.582 0 20.579.185 21.963 0 1.385.645 3.507 2.03 4.43zm-20.948-57.4c1.754 0 8.49.277 11.72.277 5.815 0 9.967-.276 20.948-.276 9.228 0 16.98 2.491 22.517 7.197 6.736 5.814 10.244 13.843 10.244 23.624 0 13.935-6.368 21.964-12.736 26.578-6.366 4.706-14.672 7.474-26.484 7.474-6.275 0-17.072-.184-26.024-.277h-.092c-.461-.83.738-4.06 1.476-4.152 2.4-.277 3.046-.37 4.246-.83 1.937-.739 2.307-1.754 2.584-5.168.276-6.368.184-14.027.184-22.702 0-6.182.092-18.272-.093-22.148-.276-3.229-1.66-4.06-4.429-4.614-1.384-.276-3.23-.646-5.813-.922-.37-.647 1.291-3.507 1.752-4.06z" fill="#8E714E"/><path d="M272.033 116.385c-2.307-.277-3.968-.645-5.998-1.568-.277-.185-.739-1.107-.739-1.477-.184-3.23-.184-12.458-.184-18.64 0-4.984-.83-9.321-2.953-12.366-2.492-3.508-6.09-5.537-10.705-5.537-4.06 0-9.505 2.768-14.027 6.644-.092.092-.83.739-.738-.277 0-1.015.185-3.045.277-4.43.093-1.292-.646-1.937-.646-1.937-2.953 1.476-11.258 3.414-14.304 3.69-2.214.463-2.768 2.585-.46 3.323h.092c2.49.738 4.152 1.569 5.443 2.4.923.738.831 1.753.831 2.584.092 6.92.092 17.533-.184 23.347-.092 2.307-.738 3.137-2.4 3.506l.185-.092c-1.292.277-2.307.553-3.876.738-.554.554-.554 3.507 0 4.153 1.015 0 6.367-.277 10.798-.277 6.09 0 9.228.277 10.796.277.646-.738.831-3.507.462-4.153-1.754-.092-3.046-.276-4.245-.646-1.661-.37-2.123-1.199-2.216-3.137-.183-4.892-.183-15.227-.183-22.24 0-1.938.553-2.861 1.106-3.415 2.123-1.845 5.538-3.137 8.583-3.137 2.953 0 4.89.923 6.367 2.123 2.03 1.66 2.676 4.06 2.953 5.813.461 3.968.277 11.812.277 18.641 0 3.691-.277 4.614-1.66 5.075-.647.277-2.308.647-4.246.83-.646.647-.461 3.508 0 4.154 2.676 0 5.814-.277 10.428-.277 5.721 0 9.413.277 10.89.277.46-.554.645-3.23.276-3.969zm25.562-35.25c-4.89 0-7.936 3.783-7.936 9.688 0 5.999 2.676 12.92 10.243 12.92 1.292 0 3.692-.554 4.798-1.846 1.754-1.66 2.954-4.983 2.954-8.49 0-7.659-3.784-12.273-10.059-12.273zm-.646 40.787c-1.845 0-3.138.554-3.968 1.016-3.876 2.49-5.629 4.89-5.629 7.752 0 2.675 1.015 4.797 3.23 6.643 2.676 2.307 6.367 3.415 11.073 3.415 9.413 0 13.566-5.076 13.566-10.058 0-3.508-1.754-5.815-5.352-7.106-2.584-1.108-7.29-1.662-12.92-1.662zm.646 23.994c-5.629 0-9.69-1.2-13.196-3.876-3.415-2.584-4.891-6.46-4.891-9.136 0-.738.185-2.769 1.846-4.614 1.014-1.108 3.23-3.23 8.49-6.829.184-.092.276-.184.276-.37 0-.184-.185-.369-.369-.46-4.337-1.661-5.629-4.338-5.999-5.814v-.185c-.091-.554-.276-1.107.555-1.661.646-.461 1.569-1.015 2.583-1.66 1.569-.924 3.23-1.939 4.245-2.77.185-.184.185-.368.185-.553 0-.185-.185-.37-.37-.461-6.458-2.123-9.688-6.922-9.688-14.12 0-4.706 2.122-8.951 5.905-11.627 2.584-2.03 9.044-4.522 13.289-4.522h.277c4.337.092 6.736 1.015 10.15 2.215 1.846.646 3.6.922 6 .922 3.598 0 5.167-1.107 6.458-2.398.093.184.278.646.37 1.845.092 1.2-.277 2.953-1.2 4.245-.738 1.015-2.399 1.754-4.06 1.754h-.462c-1.661-.185-2.4-.37-2.4-.37l-.368.185c-.092.185 0 .369.092.646l.093.185c.184.83.553 3.321.553 3.968 0 7.567-3.045 10.888-6.275 13.38-3.138 2.307-6.736 3.783-10.797 4.153-.092 0-.46 0-1.292.092-.461 0-1.107.093-1.2.093h-.092c-.738.184-2.583 1.107-2.583 2.675 0 1.384.83 3.046 4.798 3.323.83.092 1.66.092 2.584.185 5.26.368 11.812.83 14.857 1.845 4.245 1.568 6.921 5.352 6.921 9.874 0 6.83-4.89 13.197-13.011 17.164-3.968 1.754-7.937 2.677-12.274 2.677zm52.6-64.32c-1.937 0-3.691.46-4.983 1.383-3.598 2.215-5.444 6.645-5.444 13.104 0 12.09 6.09 20.58 14.765 20.58 2.584 0 4.614-.739 6.367-2.215 2.676-2.216 4.061-6.645 4.061-12.828 0-11.996-5.999-20.025-14.765-20.025zm1.662 39.496c-15.688 0-21.317-11.535-21.317-22.332 0-7.567 3.045-13.381 9.135-17.534 4.338-2.676 9.506-4.152 14.12-4.152 11.996 0 20.394 8.582 20.394 20.948 0 8.397-3.322 15.041-9.69 19.102-3.045 2.03-8.305 3.968-12.643 3.968h.001zM187.411 81.595c-1.938 0-3.691.461-4.984 1.384-3.598 2.215-5.444 6.645-5.444 13.104 0 12.09 6.09 20.58 14.765 20.58 2.584 0 4.614-.739 6.368-2.215 2.675-2.216 4.06-6.645 4.06-12.828 0-11.996-5.906-20.025-14.765-20.025zm1.661 39.497c-15.688 0-21.317-11.535-21.317-22.332 0-7.567 3.045-13.381 9.135-17.534 4.338-2.676 9.506-4.152 14.12-4.152 11.997 0 20.394 8.582 20.394 20.948 0 8.397-3.322 15.041-9.69 19.102-2.953 2.03-8.213 3.968-12.642 3.968zm-105.478-.923c-.185-.276-.37-1.107-.277-2.122 0-.739.185-1.2.277-1.384 1.938-.278 2.953-.555 4.06-.831 1.846-.462 2.584-1.476 2.676-3.783.278-5.537.278-16.058.185-23.348v-.185c0-.83 0-1.846-1.015-2.584-1.477-.922-3.23-1.752-5.537-2.4-.83-.275-1.384-.737-1.292-1.29 0-.554.554-1.2 1.754-1.385 3.045-.277 10.98-2.214 14.118-3.599.185.184.462.739.462 1.477l-.092 1.014c-.093 1.016-.185 2.216-.185 3.415 0 .369.37.646.738.646.185 0 .37-.092.554-.185 5.906-4.614 11.258-6.275 14.026-6.275 4.523 0 8.03 2.123 10.706 6.552.184.278.369.37.646.37.184 0 .46-.092.553-.277 5.445-4.153 10.89-6.645 14.488-6.645 8.582 0 13.658 6.368 13.658 17.165 0 3.045 0 7.013-.092 10.613 0 3.229-.092 6.182-.092 8.305 0 .46.645 1.937 1.66 2.214 1.292.646 3.046.923 5.353 1.292h.092c.185.646-.184 3.045-.553 3.507-.554 0-1.385 0-2.307-.092a136.208 136.208 0 0 0-7.014-.185c-5.721 0-8.674.092-11.536.277-.183-.738-.276-2.953 0-3.507 1.662-.276 2.492-.554 3.508-.83 1.846-.554 2.307-1.385 2.4-3.784 0-1.753.368-16.703-.186-20.302-.553-3.691-3.322-8.028-9.413-8.028-2.307 0-5.905.923-9.412 3.598-.184.185-.37.646-.37.923v.093c.37 1.937.37 4.153.37 7.567v5.998c0 4.153-.093 8.029 0 10.981 0 2.031 1.2 2.492 2.215 2.862.554.091.922.184 1.384.276.83.185 1.661.37 2.953.646.185.37.185 1.569-.092 2.584-.093.554-.278.83-.37.923-3.137-.092-6.367-.185-11.073-.185-1.384 0-3.784.093-5.814.093-1.662 0-3.23.092-4.152.092-.093-.185-.278-.83-.278-1.846 0-.83.185-1.476.37-1.661.461-.092.83-.184 1.292-.184 1.106-.185 2.03-.37 2.952-.554 1.57-.461 2.123-1.292 2.215-3.322.277-4.614.554-17.81-.092-21.133-1.107-5.352-4.152-8.028-9.044-8.028-2.86 0-6.46 1.384-9.412 3.6-.462.368-.831 1.29-.831 2.121v5.445c0 6.644 0 14.95.092 18.549.093 1.106.461 2.399 2.584 2.86.462.092 1.2.277 2.123.37l1.66.276c.186.554.093 2.769-.276 3.507-.923 0-2.03-.092-3.323-.092-1.937-.093-4.429-.185-7.197-.185-3.23 0-5.537.092-7.383.185-1.292-.185-2.307-.185-3.414-.185z" fill="#442D22"/><path d="M35.053 142.317l-3.783-1.293s.462-19.286-6.46-20.67c-4.613-5.353.74-227.013 17.35-.739 0 0-5.722 2.86-6.737 7.752-1.108 4.799-.37 14.95-.37 14.95z" fill="#FFF"/><path d="M35.053 142.317l-3.783-1.293s.462-19.286-6.46-20.67c-4.613-5.353.74-227.013 17.35-.739 0 0-5.722 2.86-6.737 7.752-1.108 4.799-.37 14.95-.37 14.95z" fill="#A6A385"/><path d="M37.084 123.676s33.13-21.779 25.377-67.09c-7.474-32.943-25.1-43.74-27.038-47.893C33.301 5.74 31.27.573 31.27.573l1.385 91.634c0 .093-2.861 28.054 4.43 31.47" fill="#FFF"/><path d="M37.084 123.676s33.13-21.779 25.377-67.09c-7.474-32.943-25.1-43.74-27.038-47.893C33.301 5.74 31.27.573 31.27.573l1.385 91.634c0 .093-2.861 28.054 4.43 31.47" fill="#499D4A"/><path d="M29.333 124.875S-1.767 103.65.079 66.277C1.832 28.903 23.795 10.539 28.04 7.217c2.769-2.953 2.861-4.061 3.046-7.014 1.938 4.153 1.569 62.106 1.845 68.934.83 26.3-1.476 50.756-3.598 55.738z" fill="#FFF"/><path d="M29.333 124.875S-1.767 103.65.079 66.277C1.832 28.903 23.795 10.539 28.04 7.217c2.769-2.953 2.861-4.061 3.046-7.014 1.938 4.153 1.569 62.106 1.845 68.934.83 26.3-1.476 50.756-3.598 55.738z" fill="#58AA50"/></g></svg> -->

<svg
   xmlns:dc="http://purl.org/dc/elements/1.1/"
   xmlns:cc="http://creativecommons.org/ns#"
   xmlns:rdf="http://www.w3.org/1999/02/22-rdf-syntax-ns#"
   xmlns:svg="http://www.w3.org/2000/svg"
   xmlns="http://www.w3.org/2000/svg"
   xmlns:sodipodi="http://sodipodi.sourceforge.net/DTD/sodipodi-0.dtd"
   xmlns:inkscape="http://www.inkscape.org/namespaces/inkscape"
   version="1.0"
   id="Layer_1"
   x="0px"
   y="0px"
   width="120"
   height="60"
   viewBox="0 0 120 60"
   enable-background="new 0 0 765 359"
   xml:space="preserve"
   sodipodi:docname="mongodb-ar21.svg"
   inkscape:version="0.92.2 (5c3e80d, 2017-08-06)"><metadata
     id="metadata27"><rdf:RDF><cc:Work
         rdf:about=""><dc:format>image/svg+xml</dc:format><dc:type
           rdf:resource="http://purl.org/dc/dcmitype/StillImage" /><dc:title></dc:title></cc:Work></rdf:RDF></metadata><defs
     id="defs25" /><sodipodi:namedview
     pagecolor="#ffffff"
     bordercolor="#666666"
     borderopacity="1"
     objecttolerance="10"
     gridtolerance="10"
     guidetolerance="10"
     inkscape:pageopacity="0"
     inkscape:pageshadow="2"
     inkscape:window-width="1920"
     inkscape:window-height="1001"
     id="namedview23"
     showgrid="false"
     inkscape:zoom="3.545098"
     inkscape:cx="58.032127"
     inkscape:cy="63.79929"
     inkscape:window-x="-9"
     inkscape:window-y="-9"
     inkscape:window-maximized="1"
     inkscape:current-layer="Layer_1" /><g
     id="g895"
     transform="translate(-1.9500178)"><g
       transform="matrix(1.6295974,0,0,1.6295974,-22.699855,-22.850935)"
       id="g862"><path
         style="fill:#599636;stroke-width:0.1366567"
         inkscape:connector-curvature="0"
         d="m 25.035144,17.185382 c 0.191319,0.355307 0.450967,0.9156 0.669618,1.257241 0.150322,0.232317 0.31431,0.437302 0.50563,0.628621 0.560292,0.560293 1.093253,1.147917 1.571552,1.776537 1.13425,1.489558 1.899528,3.143104 2.446155,4.933307 0.327976,1.093254 0.505629,2.213839 0.519295,3.348089 0.05466,3.389087 -1.106919,6.299874 -3.457415,8.718698 -0.382638,0.382639 -0.792608,0.737946 -1.22991,1.052256 -0.232316,0 -0.341642,-0.177653 -0.437301,-0.341641 -0.177654,-0.300645 -0.286979,-0.642287 -0.341642,-0.983929 -0.08199,-0.40997 -0.136657,-0.81994 -0.109325,-1.243575 0,-0.06833 0,-0.122992 0,-0.19132 -0.01367,-0.041 -0.218651,-18.858624 -0.136657,-18.954284 z"
         id="path2" /><path
         style="fill:#6cac48;stroke-width:0.1366567"
         inkscape:connector-curvature="0"
         d="m 25.035144,17.144385 c -0.02733,-0.05466 -0.05466,-0.01367 -0.08199,0.01366 0.01367,0.273314 -0.08199,0.519296 -0.232316,0.751612 -0.163989,0.232317 -0.382639,0.40997 -0.60129,0.60129 -1.216245,1.052256 -2.172841,2.323164 -2.938119,3.744393 -1.01126,1.913194 -1.544221,3.963045 -1.694543,6.122221 -0.06833,0.778943 0.245982,3.525742 0.491964,4.318351 0.669618,2.104513 1.872197,3.867385 3.430083,5.39794 0.382639,0.368973 0.792609,0.710615 1.216245,1.038591 0.122991,0 0.136657,-0.109326 0.163988,-0.19132 0.05466,-0.177653 0.09566,-0.355307 0.122991,-0.532961 0.122991,-0.683283 0.191319,-1.366567 0.273313,-2.04985 0,-0.08199 -0.109325,-19.145604 -0.150322,-19.213932 z"
         id="path8" /><path
         style="fill:#442D22;stroke-width:0.1366567"
         inkscape:connector-curvature="0"
         d="m 25.704762,39.733737 c 0.02733,-0.31431 0.177653,-0.573958 0.341642,-0.833606 -0.163989,-0.06833 -0.28698,-0.204985 -0.382639,-0.355307 -0.08199,-0.136657 -0.150323,-0.300645 -0.204985,-0.450967 -0.19132,-0.573958 -0.232317,-1.175248 -0.286979,-1.762872 0,0 0,0 0,0 v 0 c 0,-0.05466 0,-0.122991 0,-0.177653 0,0 0,0 0,0 0,-0.05466 0,-0.122991 0,-0.177654 -0.06833,0.05466 -0.08199,0.519296 -0.08199,0.587624 -0.041,0.628621 -0.122991,1.243576 -0.245982,1.844865 -0.041,0.245982 -0.06833,0.491964 -0.218651,0.710615 0,0.02733 0,0.05466 0.01367,0.09566 0.245982,0.72428 0.31431,1.462227 0.355307,2.213838 0,0.09566 0,0.177654 0,0.273314 0,0.327976 -0.01367,0.259648 0.259648,0.368973 0.109325,0.041 0.232316,0.05466 0.341641,0.136657 0.08199,0 0.09566,-0.06833 0.09566,-0.122991 -0.01367,-0.150323 -0.041,-0.300645 -0.041,-0.450968 0,-0.423635 -0.01367,-0.833605 0,-1.257241 -0.01367,-0.218651 0.02733,-0.437302 0.05466,-0.642287 z"
         id="path10" /></g><g
       transform="matrix(1.0211238,0,0,1.0211238,-2.4262665,-1.8459459)"
       id="g880"><path
         style="fill:#47474a;stroke-width:0.1366567"
         inkscape:connector-curvature="0"
         d="m 37.730551,33.720843 c 0,0.696949 0,1.393898 0,2.077181 0,0.08199 0,0.163988 0.01367,0.245982 0.02733,0.245982 0.177654,0.396305 0.40997,0.464633 0.204985,0.05466 0.423636,0.09566 0.628621,0.122991 0.122991,0.01367 0.163988,0.06833 0.177654,0.19132 0.01367,0.464632 -0.02733,0.519295 -0.478299,0.491964 -1.052256,-0.05466 -2.104513,-0.06833 -3.15677,0 -0.041,0 -0.08199,0 -0.109325,0 -0.327976,0.01366 -0.355307,-0.01367 -0.355307,-0.341642 0,-0.05466 0.01367,-0.122991 0.01367,-0.177654 0,-0.109325 0.06833,-0.150322 0.163988,-0.150322 0.218651,-0.02733 0.423636,-0.08199 0.628621,-0.122991 0.286979,-0.06833 0.450967,-0.245982 0.478299,-0.532961 0.041,-0.314311 0.041,-0.642287 0.041,-0.956597 0.041,-1.216245 0.02733,-2.446155 0.01366,-3.6624 0,-0.232316 -0.09566,-0.40997 -0.300644,-0.519295 -0.245982,-0.136657 -0.50563,-0.245982 -0.778944,-0.327976 -0.08199,-0.02733 -0.163988,-0.041 -0.232316,-0.08199 -0.191319,-0.09566 -0.204985,-0.273314 -0.01367,-0.382639 0.06833,-0.041 0.150323,-0.06833 0.232317,-0.08199 0.833606,-0.122991 1.63988,-0.327976 2.432489,-0.614955 0.163988,-0.05466 0.204985,-0.041 0.218651,0.122991 0.01367,0.109325 0,0.218651 -0.01367,0.31431 -0.02733,0.177654 -0.02733,0.355308 -0.02733,0.519296 0,0.06833 0.01366,0.136656 0.08199,0.177653 0.06833,0.041 0.136656,0 0.191319,-0.041 0.286979,-0.21865 0.573958,-0.423635 0.888269,-0.601289 0.450967,-0.245982 0.929265,-0.464633 1.448561,-0.532961 0.62862,-0.08199 1.175247,0.08199 1.653546,0.491964 0.204985,0.177654 0.368973,0.382639 0.519295,0.601289 0.136657,0.19132 0.150323,0.204985 0.327976,0.06833 0.519296,-0.382639 1.065923,-0.724281 1.653546,-0.970263 0.614955,-0.259648 1.243576,-0.300645 1.872197,-0.08199 0.642287,0.232317 1.079588,0.683284 1.339236,1.298239 0.218651,0.491964 0.31431,1.011259 0.31431,1.530555 0,0.806274 0,1.612549 0,2.432489 0,0.40997 0,0.81994 0,1.22991 0,0.245982 0.109326,0.40997 0.341642,0.519296 0.259648,0.109325 0.546627,0.150322 0.81994,0.204985 0.177654,0.041 0.177654,0.041 0.177654,0.218651 -0.02733,0.450967 -0.06833,0.478298 -0.50563,0.450967 -1.093254,-0.06833 -2.200173,-0.05466 -3.293426,0 -0.218651,0.01366 -0.218651,0.01366 -0.232317,-0.204985 0,-0.02733 0,-0.041 0,-0.06833 -0.01367,-0.368973 -0.01367,-0.368973 0.341642,-0.450967 0.122991,-0.02733 0.232316,-0.05466 0.355307,-0.09566 0.273314,-0.08199 0.40997,-0.259648 0.423636,-0.532962 0.01367,-0.341641 0.02733,-0.683283 0.041,-1.024925 0,-0.888268 0.02733,-1.790203 -0.02733,-2.678471 -0.01367,-0.232317 -0.05466,-0.464633 -0.150323,-0.696949 -0.341641,-0.833606 -1.093253,-1.134251 -1.817534,-1.052257 -0.546626,0.05466 -1.024925,0.273313 -1.475892,0.587624 -0.09566,0.06833 -0.163988,0.150322 -0.150322,0.286979 0.122991,0.874603 0.041,1.749206 0.05466,2.623809 0.01367,0.62862 0,1.270907 0,1.899528 0,0.341641 0.136657,0.50563 0.464633,0.587624 0.204985,0.05466 0.40997,0.09566 0.628621,0.136656 0.09566,0.01367 0.150322,0.05466 0.150322,0.163988 0,0.041 0,0.08199 0,0.109326 -0.01367,0.382638 -0.041,0.40997 -0.423635,0.396304 -1.093254,-0.05466 -2.186508,-0.041 -3.266096,0 -0.368973,0.01367 -0.40997,-0.02733 -0.382638,-0.40997 0.01367,-0.218651 0.041,-0.232316 0.245982,-0.273313 0.150322,-0.02733 0.300644,-0.05466 0.450967,-0.08199 0.40997,-0.08199 0.546627,-0.232317 0.573958,-0.655953 0.01367,-0.300644 0.041,-0.614955 0.041,-0.915599 0.01367,-0.9156 0.041,-1.8312 -0.02733,-2.7468 -0.02733,-0.341642 -0.109326,-0.669618 -0.286979,-0.983928 -0.273314,-0.50563 -0.710615,-0.765278 -1.284573,-0.792609 -0.587624,-0.041 -1.10692,0.177653 -1.598884,0.450967 -0.341642,0.191319 -0.491964,0.437301 -0.464633,0.833606 0.01367,0.683283 -0.01366,1.339235 0,1.995188 -0.01366,0 0,0 0,0 z"
         id="path4" /><g
         id="g870"><path
           id="path6"
           d="m 63.476674,33.802837 c 0,0.642286 0,1.284573 0,1.926859 0,0.136657 0.01366,0.273313 0.02733,0.40997 0.02733,0.204985 0.136657,0.327976 0.327976,0.382639 0.232316,0.06833 0.478299,0.109325 0.724281,0.122991 0.136656,0.01367 0.163988,0.06833 0.177653,0.177654 0,0.02733 0,0.05466 0,0.09566 -0.01367,0.478299 -0.06833,0.532961 -0.532961,0.50563 -1.038591,-0.06833 -2.077182,-0.05466 -3.115773,0 -0.136656,0 -0.273313,0.01367 -0.40997,0.01367 -0.08199,0 -0.109325,-0.041 -0.122991,-0.09566 -0.041,-0.191319 -0.041,-0.382639 0,-0.573958 0.01367,-0.08199 0.06833,-0.109325 0.150323,-0.122991 0.191319,-0.02733 0.368973,-0.06833 0.560292,-0.109325 0.341642,-0.08199 0.464633,-0.218651 0.478299,-0.573959 0.02733,-0.382638 0.041,-0.765277 0.041,-1.147916 0,-1.120585 0,-2.24117 0,-3.361755 0,-0.245982 -0.09566,-0.396304 -0.314311,-0.505629 -0.245982,-0.136657 -0.50563,-0.232317 -0.778943,-0.327977 -0.08199,-0.02733 -0.163988,-0.05466 -0.232316,-0.09566 -0.177654,-0.122991 -0.19132,-0.300645 -0.02733,-0.437302 0.08199,-0.06833 0.163988,-0.09566 0.273314,-0.109325 0.874603,-0.136657 1.721874,-0.327976 2.541814,-0.655952 0.09566,-0.041 0.136657,-0.01367 0.177654,0.06833 0.041,0.08199 0.05466,0.177654 0.041,0.273314 -0.01367,0.21865 -0.02733,0.423635 -0.041,0.642286 0,0.08199 -0.041,0.191319 0.02733,0.232316 0.08199,0.05466 0.136657,-0.06833 0.204985,-0.109325 0.40997,-0.327976 0.847272,-0.628621 1.32557,-0.847271 0.423636,-0.19132 0.860938,-0.327977 1.352902,-0.300645 0.9156,0.05466 1.571552,0.519295 1.995188,1.32557 0.21865,0.423636 0.31431,0.888268 0.355307,1.366567 0.02733,0.327976 0.041,0.669618 0.041,1.011259 0,0.942932 0.01367,1.872197 0.01367,2.815128 0,0.06833 0,0.136657 0,0.204985 0.01367,0.232317 0.09566,0.382639 0.327976,0.464633 0.245982,0.08199 0.478298,0.136657 0.737946,0.177654 0.218651,0.02733 0.232316,0.06833 0.245982,0.273313 0,0.02733 0,0.041 0,0.06833 -0.02733,0.464632 -0.05466,0.478298 -0.519296,0.450967 -1.024925,-0.05466 -2.04985,-0.05466 -3.06111,0 -0.136656,0.01366 -0.273313,0 -0.40997,0.01366 -0.08199,0 -0.136656,-0.01366 -0.150322,-0.09566 -0.02733,-0.177654 -0.05466,-0.355308 -0.01367,-0.546627 0.01367,-0.08199 0.05466,-0.122991 0.150323,-0.136657 0.204985,-0.02733 0.423635,-0.05466 0.62862,-0.109325 0.218651,-0.05466 0.341642,-0.191319 0.368974,-0.40997 0.01367,-0.122991 0.02733,-0.259648 0.02733,-0.382639 0,-0.956597 0,-1.913194 -0.01367,-2.856125 0,-0.327976 -0.01367,-0.655952 -0.08199,-0.983928 -0.163988,-0.710615 -0.696949,-1.188914 -1.42123,-1.270908 -0.62862,-0.06833 -1.188913,0.09566 -1.721874,0.437302 -0.259648,0.163988 -0.368973,0.396304 -0.368973,0.683283 0,0.478299 0,0.956597 0,1.448561 0,0.204985 0,0.409971 0,0.614956 0,-0.041 0,-0.041 0.01367,-0.041 z"
           inkscape:connector-curvature="0"
           style="fill:#47474a;stroke-width:0.1366567" /><path
           id="path12"
           d="m 103.50342,29.935452 c -0.15032,-0.997594 -0.51929,-1.885863 -1.16158,-2.664806 -0.57396,-0.696949 -1.27091,-1.216244 -2.10451,-1.557886 -0.860941,-0.355308 -1.776541,-0.464633 -2.705807,-0.491964 -0.382638,-0.01367 -5.602924,0.06833 -5.985563,0 -0.09566,-0.01367 -0.163988,0.01366 -0.218651,0.09566 -0.06833,0.109326 -0.136657,0.204986 -0.177654,0.314311 -0.163988,0.368973 -0.163988,0.341642 0.232317,0.396304 0.327976,0.05466 0.642286,0.08199 0.956597,0.177654 0.286979,0.09566 0.491964,0.259648 0.560292,0.573958 0.02733,0.150323 0.05466,4.960638 0.05466,7.201808 0,0.532961 -0.01367,1.065923 -0.05466,1.598884 -0.01367,0.122991 -0.02733,0.245982 -0.06833,0.355307 -0.05466,0.163988 -0.150323,0.300645 -0.314311,0.368973 -0.177653,0.08199 -0.368973,0.136657 -0.573958,0.150323 -0.368973,0.041 -0.423636,0.05466 -0.546627,0.464632 -0.01366,0.05466 -0.02733,0.109326 -0.041,0.150323 -0.02733,0.177653 -0.01367,0.204985 0.163988,0.204985 0.819941,0.01367 3.402752,0.041 4.086036,0.041 0.382639,-0.01367 0.997594,0.02733 1.598883,-0.02733 0.368973,-0.041 0.737946,-0.06833 1.106919,-0.136656 1.257242,-0.232317 2.377829,-0.751612 3.334429,-1.585218 0.56028,-0.491964 0.98393,-1.065922 1.31189,-1.721874 0.38264,-0.765278 0.54663,-1.598884 0.58764,-2.446155 0.0683,-0.478299 0.041,-0.970263 -0.041,-1.462227 z m -1.98152,1.940525 c -0.0547,0.874603 -0.23232,1.721874 -0.68328,2.487152 -0.57396,0.997594 -1.393903,1.694543 -2.528154,1.940525 -0.491964,0.109326 -0.983928,0.150323 -1.489558,0.08199 -0.368973,-0.041 -0.72428,-0.08199 -1.065922,-0.204985 -0.614955,-0.218651 -0.833606,-0.601289 -0.847271,-1.188913 -0.02733,-0.860937 0,-6.887498 -0.01367,-8.240399 0,-0.491964 0.218651,-0.60129 0.573958,-0.614955 0.532961,-0.041 1.079588,-0.02733 1.612549,0.02733 0.573958,0.05466 1.120585,0.191319 1.653546,0.40997 0.396305,0.163988 0.765278,0.396305 1.079588,0.669618 0.737954,0.628621 1.229914,1.42123 1.489564,2.350495 0.21865,0.751612 0.25965,1.51689 0.21865,2.282167 z"
           inkscape:connector-curvature="0"
           style="fill:#442D22;stroke-width:0.1366567" /><path
           id="path14"
           d="m 114.85959,33.215213 c 0,-0.08199 0,-0.150323 -0.0137,-0.232317 -0.12299,-0.751612 -0.5193,-1.32557 -1.13425,-1.762871 -0.39631,-0.286979 -0.84727,-0.478299 -1.31191,-0.614955 -0.082,-0.02733 -0.15032,-0.05466 -0.23231,-0.06833 0.0137,-0.06833 0.0547,-0.08199 0.0957,-0.09566 0.27331,-0.136657 0.53296,-0.286979 0.76527,-0.491964 0.42364,-0.355308 0.71062,-0.792609 0.84727,-1.32557 0.082,-0.286979 0.082,-0.573959 0.0547,-0.874603 -0.0683,-0.751612 -0.39631,-1.339236 -0.9976,-1.776537 -0.62862,-0.464633 -1.36656,-0.655953 -2.13184,-0.669618 -1.47589,-0.02733 -2.96545,0 -4.44134,0 -0.42364,0 -0.84728,0.02733 -1.28458,-0.041 -0.082,-0.01367 -0.19132,-0.041 -0.25964,0.05466 -0.10933,0.177654 -0.21866,0.355308 -0.25965,0.560293 -0.0137,0.09566 0.0137,0.150322 0.12299,0.163988 0.31431,0.041 0.62862,0.09566 0.94293,0.136657 0.36897,0.05466 0.62862,0.259647 0.65595,0.587624 0.0273,0.232316 0.041,0.450967 0.041,0.683283 0,0.847272 -0.0137,1.708209 -0.0273,2.55548 -0.0273,1.680878 -0.0137,3.375421 -0.0137,5.056298 0,0.300645 -0.041,0.587624 -0.0957,0.888269 -0.041,0.204985 -0.15032,0.341641 -0.35531,0.40997 -0.27331,0.08199 -0.53296,0.163988 -0.81994,0.163988 -0.17765,0 -0.28697,0.06833 -0.3553,0.232316 -0.0547,0.122991 -0.10933,0.259648 -0.12299,0.382639 -0.0273,0.163988 0.0137,0.218651 0.17765,0.191319 0.12299,-0.01366 4.63266,0.09566 5.47993,0.01367 0.50563,-0.05466 1.01126,-0.122991 1.50323,-0.273313 0.86093,-0.273314 1.65354,-0.669618 2.28216,-1.339236 0.5193,-0.546627 0.81994,-1.202579 0.84728,-1.967856 0.041,-0.177654 0.041,-0.355308 0.041,-0.546627 z m -6.62785,-5.589259 c 0.0273,-0.368973 0.0273,-0.724281 0.041,-1.093254 0,-0.204985 0.082,-0.300645 0.28698,-0.341642 0.32798,-0.06833 0.65595,-0.041 0.98393,-0.02733 0.32797,0.02733 0.64228,0.06833 0.97026,0.163988 0.60129,0.177654 1.06592,0.519296 1.33924,1.093254 0.12299,0.259647 0.19131,0.546626 0.19131,0.833606 0.0137,0.382638 -0.0137,0.751611 -0.16398,1.120584 -0.23232,0.50563 -0.60129,0.833606 -1.13425,0.929266 -0.53296,0.09566 -2.04985,0.05466 -2.28217,0.05466 -0.20499,0 -0.21865,-0.02733 -0.21865,-0.232317 0,-0.437301 0,-0.874603 0,-1.298238 0,0 0,0 0,0 -0.0273,-0.382639 -0.041,-0.792609 -0.0137,-1.202579 z m 4.44135,7.35213 c -0.23232,0.614955 -0.65596,1.038591 -1.25725,1.270907 -0.32797,0.122992 -0.65595,0.19132 -1.01126,0.177654 -0.42363,-0.01367 -0.84727,0 -1.2709,-0.08199 -0.57396,-0.122991 -0.83361,-0.669618 -0.87461,-1.065922 -0.0683,-0.696949 -0.0273,-1.407564 -0.041,-1.92686 0,-0.72428 0,-1.257241 0,-1.803868 0,-0.218651 0.0273,-0.286979 0.25964,-0.286979 0.42364,-0.01367 0.84728,-0.02733 1.28458,0.01367 0.30064,0.02733 0.58762,0.05466 0.8746,0.109325 0.61496,0.136657 1.17525,0.368973 1.61255,0.847272 0.35531,0.382638 0.54663,0.847271 0.58762,1.352901 0.041,0.478298 0.0137,0.942931 -0.16398,1.393898 z"
           inkscape:connector-curvature="0"
           style="fill:#442D22;stroke-width:0.1366567" /><path
           id="path16"
           d="m 77.948618,30.851052 c 0.122991,0.01366 0.245982,0.041 0.355308,0.05466 0.382638,0.01366 0.833605,-0.122992 0.970262,-0.655953 0.06833,-0.259647 0.08199,-0.505629 0,-0.778943 -0.08199,0 -0.122991,0.06833 -0.163988,0.09566 -0.204985,0.163988 -0.437301,0.259648 -0.683283,0.286979 -0.491964,0.05466 -0.983929,0.02733 -1.462227,-0.150322 -0.218651,-0.08199 -0.437302,-0.163988 -0.669618,-0.232317 -0.464633,-0.150322 -0.956597,-0.218651 -1.448561,-0.191319 -0.696949,0.05466 -1.352901,0.286979 -1.967856,0.614955 -0.655953,0.355307 -1.120585,0.888268 -1.339236,1.612549 -0.122991,0.423636 -0.136657,0.860937 -0.08199,1.298239 0.136657,0.997594 0.655952,1.694543 1.585218,2.063516 0.05466,0.01367 0.09566,0.041 0.150322,0.05466 0.122991,0.06833 0.136657,0.136657 0.02733,0.232317 -0.109325,0.08199 -0.21865,0.163988 -0.341641,0.232316 -0.273314,0.163988 -0.546627,0.327976 -0.819941,0.50563 -0.204985,0.122991 -0.232316,0.218651 -0.163988,0.437301 0.08199,0.259648 0.232317,0.478299 0.437302,0.655953 0.191319,0.163988 0.396304,0.286979 0.628621,0.382638 0.150322,0.06833 0.150322,0.109326 0.01367,0.218651 -0.259647,0.19132 -0.519295,0.368973 -0.778943,0.560293 -0.259648,0.191319 -0.519295,0.40997 -0.737946,0.655952 -0.31431,0.355307 -0.423636,0.765277 -0.327976,1.22991 0.109325,0.491964 0.341642,0.888269 0.710615,1.22991 0.355307,0.327976 0.778943,0.560293 1.257241,0.683284 0.765278,0.218651 1.557887,0.232316 2.33683,0.08199 1.120585,-0.204985 2.090847,-0.710615 2.869791,-1.544221 0.532961,-0.560292 0.847271,-1.216244 0.874602,-2.008853 0.041,-0.956597 -0.546626,-1.762872 -1.475892,-1.995188 -0.245982,-0.05466 -0.491964,-0.09566 -0.737946,-0.136657 -0.751612,-0.09566 -1.503224,-0.136657 -2.254836,-0.191319 -0.245982,-0.01367 -0.491964,-0.05466 -0.696949,-0.177654 -0.259648,-0.163988 -0.327976,-0.478298 -0.163988,-0.683283 0.122991,-0.150323 0.273314,-0.245982 0.464633,-0.259648 0.150322,-0.01367 0.286979,-0.02733 0.437301,-0.041 0.888269,-0.09566 1.653546,-0.450967 2.309499,-1.052257 0.341641,-0.31431 0.573958,-0.710615 0.696949,-1.161582 0.163988,-0.587624 0.163988,-1.188913 0.02733,-1.790202 -0.041,-0.150323 -0.02733,-0.163989 0.163988,-0.136657 z m -3.348089,6.805503 c 0.08199,0.01367 0.163988,0 0.245982,0 0.573958,0.02733 1.161582,0.06833 1.721875,0.218651 0.191319,0.05466 0.355307,0.122991 0.532961,0.204985 0.546626,0.300645 0.751611,0.81994 0.683283,1.380233 -0.08199,0.614955 -0.423636,1.052257 -0.956597,1.339236 -0.355307,0.191319 -0.751612,0.286979 -1.161582,0.327976 -0.150322,0.01366 -0.286979,0 -0.437301,0 -0.478299,0.01366 -0.942931,-0.041 -1.393898,-0.232317 -0.314311,-0.122991 -0.573959,-0.300644 -0.806275,-0.546627 -0.478298,-0.478298 -0.710615,-1.352901 0.01367,-2.063516 0.437301,-0.40997 0.929265,-0.683283 1.557886,-0.628621 z m 1.557886,-4.263689 c -0.286979,0.724281 -0.915599,0.942932 -1.54422,0.847272 -0.573958,-0.08199 -0.997594,-0.396304 -1.270908,-0.9156 -0.355307,-0.696949 -0.450967,-1.42123 -0.245982,-2.172841 0.150323,-0.560293 0.491964,-0.983929 1.093254,-1.079588 0.765277,-0.136657 1.489558,0.136656 1.885862,0.901934 0.19132,0.368973 0.286979,0.81994 0.286979,1.462227 -0.01367,0.259647 -0.06833,0.614955 -0.204985,0.956596 z"
           inkscape:connector-curvature="0"
           style="fill:#47474a;stroke-width:0.1366567" /><path
           id="path18"
           d="m 58.939671,32.463601 c -0.122991,-0.737946 -0.396304,-1.407564 -0.901934,-1.967857 -0.751612,-0.833605 -1.708209,-1.188913 -2.787797,-1.202579 -0.942931,-0.01366 -1.831199,0.259648 -2.623808,0.751612 -0.792609,0.491964 -1.339236,1.188914 -1.598884,2.090848 -0.232316,0.792609 -0.21865,1.598883 -0.041,2.405158 0.478299,2.159176 2.14551,3.088441 4.140698,2.951784 0.587624,-0.041 1.147917,-0.232316 1.680878,-0.491964 0.792609,-0.368973 1.366567,-0.956597 1.762871,-1.73554 0.314311,-0.642286 0.450967,-1.32557 0.437302,-2.104513 -0.01367,-0.191319 -0.02733,-0.450967 -0.06833,-0.696949 z m -1.940525,3.033779 c -0.245982,0.655952 -0.710615,1.052256 -1.407564,1.147916 C 54.990293,36.72729 54.43,36.576968 53.92437,36.22166 53.555397,35.948347 53.268418,35.606705 53.063433,35.196735 52.503141,34.048819 52.407481,32.84624 52.69446,31.616329 c 0.09566,-0.382638 0.286979,-0.72428 0.573958,-0.997594 0.50563,-0.464632 1.093254,-0.573958 1.749206,-0.437301 0.628621,0.136657 1.106919,0.478298 1.489558,0.997594 0.382639,0.519295 0.573958,1.120585 0.683283,1.749206 0.05466,0.31431 0.05466,0.642286 0.06833,0.847271 0,0.655952 -0.05466,1.188913 -0.259648,1.721875 z"
           inkscape:connector-curvature="0"
           style="fill:#47474a;stroke-width:0.1366567" /><path
           id="path20"
           d="m 88.79916,32.572926 c -0.109325,-0.792609 -0.396304,-1.516889 -0.956597,-2.118179 -0.737946,-0.806274 -1.694543,-1.147916 -2.760465,-1.161582 -0.9156,-0.01366 -1.762872,0.245983 -2.541815,0.69695 -0.874603,0.519295 -1.475892,1.257241 -1.708208,2.254835 -0.273314,1.120585 -0.163988,2.213839 0.327976,3.25243 0.450967,0.956597 1.216244,1.571552 2.227504,1.844865 1.120585,0.300645 2.186507,0.163988 3.225098,-0.341642 0.901934,-0.437301 1.544221,-1.120585 1.913194,-2.04985 0.21865,-0.546627 0.300644,-1.134251 0.31431,-1.817534 0.01367,-0.122991 -0.01367,-0.341642 -0.041,-0.560293 z m -1.885862,2.7468 c -0.218651,0.737946 -0.683284,1.216245 -1.462227,1.32557 -0.573958,0.08199 -1.120585,-0.05466 -1.612549,-0.382639 -0.423636,-0.286979 -0.724281,-0.669618 -0.942931,-1.120585 -0.245982,-0.478298 -0.382639,-0.983928 -0.437302,-1.503223 -0.08199,-0.642287 -0.08199,-1.270908 0.06833,-1.913194 0.02733,-0.122991 0.06833,-0.245982 0.122991,-0.368973 0.382638,-0.956597 1.22991,-1.393899 2.227504,-1.175248 0.669618,0.150322 1.175247,0.519295 1.557886,1.079588 0.368973,0.546627 0.546627,1.147916 0.628621,1.790203 0.041,0.259647 0.05466,0.532961 0.041,0.765277 0,0.532961 -0.041,1.024925 -0.191319,1.503224 z"
           inkscape:connector-curvature="0"
           style="fill:#47474a;stroke-width:0.1366567" /></g></g></g></svg>

      