<!-- <svg version="1.1" id="Layer_2_1_" xmlns="http://www.w3.org/2000/svg" xmlns:xlink="http://www.w3.org/1999/xlink" x="0px" y="0px"
	 viewBox="0 0 841.9 595.3" enable-background="new 0 0 841.9 595.3" xml:space="preserve">
<g>
	<path fill="#61DAFB" d="M666.3,296.5c0-32.5-40.7-63.3-103.1-82.4c14.4-63.6,8-114.2-20.2-130.4c-6.5-3.8-14.1-5.6-22.4-5.6v22.3
		c4.6,0,8.3,0.9,11.4,2.6c13.6,7.8,19.5,37.5,14.9,75.7c-1.1,9.4-2.9,19.3-5.1,29.4c-19.6-4.8-41-8.5-63.5-10.9
		c-13.5-18.5-27.5-35.3-41.6-50c32.6-30.3,63.2-46.9,84-46.9l0-22.3c0,0,0,0,0,0c-27.5,0-63.5,19.6-99.9,53.6
		c-36.4-33.8-72.4-53.2-99.9-53.2v22.3c20.7,0,51.4,16.5,84,46.6c-14,14.7-28,31.4-41.3,49.9c-22.6,2.4-44,6.1-63.6,11
		c-2.3-10-4-19.7-5.2-29c-4.7-38.2,1.1-67.9,14.6-75.8c3-1.8,6.9-2.6,11.5-2.6l0-22.3c0,0,0,0,0,0c-8.4,0-16,1.8-22.6,5.6
		c-28.1,16.2-34.4,66.7-19.9,130.1c-62.2,19.2-102.7,49.9-102.7,82.3c0,32.5,40.7,63.3,103.1,82.4c-14.4,63.6-8,114.2,20.2,130.4
		c6.5,3.8,14.1,5.6,22.5,5.6c27.5,0,63.5-19.6,99.9-53.6c36.4,33.8,72.4,53.2,99.9,53.2c8.4,0,16-1.8,22.6-5.6
		c28.1-16.2,34.4-66.7,19.9-130.1C625.8,359.7,666.3,328.9,666.3,296.5z M536.1,229.8c-3.7,12.9-8.3,26.2-13.5,39.5
		c-4.1-8-8.4-16-13.1-24c-4.6-8-9.5-15.8-14.4-23.4C509.3,224,523,226.6,536.1,229.8z M490.3,336.3c-7.8,13.5-15.8,26.3-24.1,38.2
		c-14.9,1.3-30,2-45.2,2c-15.1,0-30.2-0.7-45-1.9c-8.3-11.9-16.4-24.6-24.2-38c-7.6-13.1-14.5-26.4-20.8-39.8
		c6.2-13.4,13.2-26.8,20.7-39.9c7.8-13.5,15.8-26.3,24.1-38.2c14.9-1.3,30-2,45.2-2c15.1,0,30.2,0.7,45,1.9
		c8.3,11.9,16.4,24.6,24.2,38c7.6,13.1,14.5,26.4,20.8,39.8C504.7,309.8,497.8,323.2,490.3,336.3z M522.6,323.3
		c5.4,13.4,10,26.8,13.8,39.8c-13.1,3.2-26.9,5.9-41.2,8c4.9-7.7,9.8-15.6,14.4-23.7C514.2,339.4,518.5,331.3,522.6,323.3z
		 M421.2,430c-9.3-9.6-18.6-20.3-27.8-32c9,0.4,18.2,0.7,27.5,0.7c9.4,0,18.7-0.2,27.8-0.7C439.7,409.7,430.4,420.4,421.2,430z
		 M346.8,371.1c-14.2-2.1-27.9-4.7-41-7.9c3.7-12.9,8.3-26.2,13.5-39.5c4.1,8,8.4,16,13.1,24C337.1,355.7,341.9,363.5,346.8,371.1z
		 M420.7,163c9.3,9.6,18.6,20.3,27.8,32c-9-0.4-18.2-0.7-27.5-0.7c-9.4,0-18.7,0.2-27.8,0.7C402.2,183.3,411.5,172.6,420.7,163z
		 M346.7,221.9c-4.9,7.7-9.8,15.6-14.4,23.7c-4.6,8-8.9,16-13,24c-5.4-13.4-10-26.8-13.8-39.8C318.6,226.7,332.4,224,346.7,221.9z
		 M256.2,347.1c-35.4-15.1-58.3-34.9-58.3-50.6c0-15.7,22.9-35.6,58.3-50.6c8.6-3.7,18-7,27.7-10.1c5.7,19.6,13.2,40,22.5,60.9
		c-9.2,20.8-16.6,41.1-22.2,60.6C274.3,354.2,264.9,350.8,256.2,347.1z M310,490c-13.6-7.8-19.5-37.5-14.9-75.7
		c1.1-9.4,2.9-19.3,5.1-29.4c19.6,4.8,41,8.5,63.5,10.9c13.5,18.5,27.5,35.3,41.6,50c-32.6,30.3-63.2,46.9-84,46.9
		C316.8,492.6,313,491.7,310,490z M547.2,413.8c4.7,38.2-1.1,67.9-14.6,75.8c-3,1.8-6.9,2.6-11.5,2.6c-20.7,0-51.4-16.5-84-46.6
		c14-14.7,28-31.4,41.3-49.9c22.6-2.4,44-6.1,63.6-11C544.3,394.8,546.1,404.5,547.2,413.8z M585.7,347.1c-8.6,3.7-18,7-27.7,10.1
		c-5.7-19.6-13.2-40-22.5-60.9c9.2-20.8,16.6-41.1,22.2-60.6c9.9,3.1,19.3,6.5,28.1,10.2c35.4,15.1,58.3,34.9,58.3,50.6
		C644,312.2,621.1,332.1,585.7,347.1z"/>
	<polygon fill="#61DAFB" points="320.8,78.4 320.8,78.4 320.8,78.4 	"/>
	<circle fill="#61DAFB" cx="420.9" cy="296.5" r="45.7"/>
	<polygon fill="#61DAFB" points="520.5,78.1 520.5,78.1 520.5,78.1 	"/>
</g>
</svg> -->


<svg
   xmlns:sketch="http://www.bohemiancoding.com/sketch/ns"
   xmlns:dc="http://purl.org/dc/elements/1.1/"
   xmlns:cc="http://creativecommons.org/ns#"
   xmlns:rdf="http://www.w3.org/1999/02/22-rdf-syntax-ns#"
   xmlns:svg="http://www.w3.org/2000/svg"
   xmlns="http://www.w3.org/2000/svg"
   xmlns:sodipodi="http://sodipodi.sourceforge.net/DTD/sodipodi-0.dtd"
   xmlns:inkscape="http://www.inkscape.org/namespaces/inkscape"
   width="120"
   height="60"
   viewBox="0 0 120 60"
   version="1.1"
   id="svg17"
   sodipodi:docname="facebook_react-ar21.svg"
   inkscape:version="0.92.2 (5c3e80d, 2017-08-06)">
  <metadata
     id="metadata21">
    <rdf:RDF>
      <cc:Work
         rdf:about="">
        <dc:format>image/svg+xml</dc:format>
        <dc:type
           rdf:resource="http://purl.org/dc/dcmitype/StillImage" />
        <dc:title>react-logo</dc:title>
      </cc:Work>
    </rdf:RDF>
  </metadata>
  <sodipodi:namedview
     pagecolor="#ffffff"
     bordercolor="#666666"
     borderopacity="1"
     objecttolerance="10"
     gridtolerance="10"
     guidetolerance="10"
     inkscape:pageopacity="0"
     inkscape:pageshadow="2"
     inkscape:window-width="1920"
     inkscape:window-height="1001"
     id="namedview19"
     showgrid="false"
     inkscape:zoom="4.7467168"
     inkscape:cx="70.545138"
     inkscape:cy="48.73361"
     inkscape:window-x="-9"
     inkscape:window-y="-9"
     inkscape:window-maximized="1"
     inkscape:current-layer="svg17" />
  <!-- Generator: Sketch 3.3.3 (12081) - http://www.bohemiancoding.com/sketch -->
  <title
     id="title2">react-logo</title>
  <desc
     id="desc4">Created with Sketch.</desc>
  <defs
     id="defs6" />
  <g
     style="fill:none;fill-rule:evenodd;stroke:none;stroke-width:1"
     transform="matrix(0.06927983,0,0,0.06927983,7.3673982,13.505331)"
     sketch:type="MSLayerGroup"
     id="logo-(1)">
    <circle
       r="50.167"
       cy="237.62801"
       cx="269.52899"
       sketch:type="MSShapeGroup"
       id="Oval"
       style="fill:#00d8ff" />
    <path
       sketch:type="MSShapeGroup"
       id="Shape"
       d="m 269.529,135.628 c 67.356,0 129.928,9.665 177.107,25.907 56.844,19.569 91.794,49.233 91.794,76.093 0,27.991 -37.041,59.503 -98.083,79.728 -46.151,15.291 -106.879,23.272 -170.818,23.272 -65.554,0 -127.63,-7.492 -174.29,-23.441 C 36.193,297.005 0.628,265.084 0.628,237.628 c 0,-26.642 33.37,-56.076 89.415,-75.616 47.355,-16.509 111.472,-26.384 179.486,-26.384 z"
       inkscape:connector-curvature="0"
       style="stroke:#00d8ff;stroke-width:24" />
    <path
       sketch:type="MSShapeGroup"
       id="path10"
       d="m 180.736,186.922 c 33.649,-58.348 73.281,-107.724 110.92,-140.48 45.35,-39.466 88.507,-54.923 111.775,-41.505 24.248,13.983 33.042,61.814 20.067,124.796 -9.81,47.618 -33.234,104.212 -65.176,159.601 -32.749,56.788 -70.25,106.819 -107.377,139.272 -46.981,41.068 -92.4,55.929 -116.185,42.213 -23.079,-13.31 -31.906,-56.921 -20.834,-115.233 9.355,-49.27 32.832,-109.745 66.81,-168.664 z"
       inkscape:connector-curvature="0"
       style="stroke:#00d8ff;stroke-width:24" />
    <path
       sketch:type="MSShapeGroup"
       id="path12"
       d="M 180.821,289.482 C 147.075,231.19 124.09,172.195 114.509,123.227 102.965,64.228 111.127,19.118 134.373,5.661 c 24.224,-14.024 70.055,2.244 118.14,44.94 36.356,32.28 73.688,80.837 105.723,136.173 32.844,56.733 57.461,114.209 67.036,162.582 12.117,61.213 2.309,107.984 -21.453,121.74 C 380.762,484.444 338.57,470.312 293.58,431.597 255.567,398.886 214.898,348.344 180.821,289.482 Z"
       inkscape:connector-curvature="0"
       style="stroke:#00d8ff;stroke-width:24" />
  </g>
  <path
     sketch:type="MSShapeGroup"
     id="React"
     d="m 64.620881,38.847906 -4.258852,-6.435599 c 2.153087,-0.189282 4.09323,-1.750861 4.09323,-4.590097 0,-2.910215 -2.058445,-4.755717 -4.945,-4.755717 h -6.340958 v 15.781413 h 1.963804 v -6.269977 h 3.146819 l 4.022248,6.269977 z m -5.347225,-7.997178 h -4.140551 v -6.033374 h 4.140551 c 1.869163,0 3.146818,1.230335 3.146818,3.004856 0,1.774522 -1.277655,3.028518 -3.146818,3.028518 z m 12.658255,8.281101 c 1.869163,0 3.407082,-0.615167 4.542775,-1.750861 l -0.85177,-1.159354 c -0.899091,0.922751 -2.224067,1.443278 -3.525383,1.443278 -2.46067,0 -3.974929,-1.798183 -4.116891,-3.951269 h 9.251174 v -0.449545 c 0,-3.430743 -2.034785,-6.128015 -5.489187,-6.128015 -3.26512,0 -5.631149,2.673612 -5.631149,5.986052 0,3.572705 2.437009,6.009714 5.820431,6.009714 z m 3.549043,-6.719522 h -7.500312 c 0.09465,-1.750861 1.301316,-3.809307 3.738326,-3.809307 2.602632,0 3.738327,2.105766 3.761986,3.809307 z M 89.01464,38.847906 V 30.99269 c 0,-2.768255 -2.011125,-3.856627 -4.424474,-3.856627 -1.869163,0 -3.336101,0.615167 -4.566435,1.892823 l 0.828109,1.230335 c 1.017393,-1.088374 2.129427,-1.58524 3.501724,-1.58524 1.656219,0 2.886555,0.875431 2.886555,2.41335 v 2.058445 c -0.922751,-1.064713 -2.224067,-1.561579 -3.785647,-1.561579 -1.940144,0 -3.998589,1.206674 -3.998589,3.761986 0,2.48433 2.058445,3.785646 3.998589,3.785646 1.53792,0 2.839235,-0.544186 3.785647,-1.585239 v 1.301316 z M 84.0933,37.854174 c -1.656221,0 -2.815574,-1.041053 -2.815574,-2.48433 0,-1.466939 1.159353,-2.507992 2.815574,-2.507992 1.253996,0 2.46067,0.473207 3.146819,1.419618 v 2.153086 c -0.686149,0.946412 -1.892823,1.419618 -3.146819,1.419618 z m 13.510025,1.277655 c 2.082109,0 3.312445,-0.85177 4.187875,-1.987464 l -1.18302,-1.088374 c -0.757124,1.017393 -1.727199,1.490599 -2.910213,1.490599 -2.43701,0 -3.951269,-1.892823 -3.951269,-4.424475 0,-2.53165 1.514259,-4.400813 3.951269,-4.400813 1.183014,0 2.153089,0.449545 2.910213,1.490598 l 1.18302,-1.088373 c -0.87543,-1.135694 -2.105766,-1.987464 -4.187875,-1.987464 -3.407081,0 -5.702129,2.602632 -5.702129,5.986052 0,3.407083 2.295048,6.009714 5.702129,6.009714 z m 9.558765,0 c 1.04105,0 1.67987,-0.307583 2.12942,-0.733469 l -0.52053,-1.324976 c -0.2366,0.260264 -0.70981,0.473206 -1.20667,0.473206 -0.78079,0 -1.15936,-0.615167 -1.15936,-1.466938 v -7.098087 h 2.31871 v -1.561579 h -2.31871 v -3.123159 h -1.77452 v 3.123159 h -1.89282 v 1.561579 h 1.89282 v 7.476651 c 0,1.703542 0.85177,2.673613 2.53166,2.673613 z"
     inkscape:connector-curvature="0"
     style="fill:#00d8ff;fill-rule:evenodd;stroke:none;stroke-width:0.06226392" />
</svg>


